<svg width="38" height="38" viewBox="0 0 38 38" fill="none" xmlns="http://www.w3.org/2000/svg">
<circle cx="19" cy="19" r="17" fill="#262626"/>
<path d="M25.3244 11.2031C24.2231 11.3538 23.2538 12.0053 22.6978 12.9675L18.6573 19.9591C18.6213 20.0213 18.532 20.0235 18.4929 19.9631L15.0764 14.6942C14.3178 13.524 12.9511 12.8978 11.5693 13.0871L11.4635 13.1018C9.69021 13.3449 8.36533 14.8542 8.35421 16.644L8.29199 26.5369L12.1404 26.0098L12.2644 17.392C12.2658 17.2951 12.3929 17.2595 12.4444 17.3418L16.596 23.9609C17.1018 24.7675 18.0333 25.2027 18.9764 25.0738C19.728 24.9707 20.3875 24.5218 20.7591 23.8609L25.4204 15.5658C25.4693 15.4787 25.6018 15.5147 25.6004 15.6142L25.4773 24.1831L29.3551 23.652L29.4107 14.7911C29.4244 12.6009 27.4947 10.9067 25.3244 11.204V11.2031Z" fill="white"/>
<path d="M36.2449 11.5209C35.2947 9.27422 33.9347 7.25733 32.2027 5.52533C30.4707 3.79333 28.4533 2.43333 26.2071 1.48311C23.8804 0.499111 21.4098 0 18.864 0C16.3182 0 13.8476 0.499111 11.5209 1.48311C9.27422 2.43333 7.25733 3.79333 5.52533 5.52533C3.79333 7.25733 2.43333 9.27467 1.48311 11.5209C0.499111 13.8476 0 16.3182 0 18.864C0 21.4098 0.499111 23.8804 1.48311 26.2071C2.43333 28.4538 3.79333 30.4707 5.52533 32.2027C7.25733 33.9347 9.27467 35.2947 11.5209 36.2449C13.8476 37.2289 16.3182 37.728 18.864 37.728C21.4098 37.728 23.8804 37.2289 26.2071 36.2449C28.4538 35.2947 30.4707 33.9347 32.2027 32.2027C33.9347 30.4707 35.2947 28.4533 36.2449 26.2071C37.2289 23.8804 37.728 21.4098 37.728 18.864C37.728 16.3182 37.2289 13.8476 36.2449 11.5209ZM33.4893 25.0418C32.6898 26.9316 31.5453 28.6293 30.0871 30.0876C28.6289 31.5458 26.9316 32.6902 25.0413 33.4898C23.0853 34.3169 21.0071 34.7364 18.8636 34.7364C16.72 34.7364 14.6418 34.3169 12.6858 33.4898C10.796 32.6902 9.09822 31.5458 7.64 30.0876C6.18178 28.6293 5.03733 26.932 4.23778 25.0418C3.41067 23.0858 2.99111 21.0076 2.99111 18.864C2.99111 16.7204 3.41067 14.6422 4.23778 12.6862C5.03733 10.7964 6.18178 9.09867 7.64 7.64044C9.09822 6.18222 10.7956 5.03778 12.6858 4.23822C14.6418 3.41111 16.72 2.99156 18.8636 2.99156C21.0071 2.99156 23.0853 3.41111 25.0413 4.23822C26.9311 5.03778 28.6289 6.18222 30.0871 7.64044C31.5453 9.09867 32.6898 10.796 33.4893 12.6862C34.3164 14.6422 34.736 16.7204 34.736 18.864C34.736 21.0076 34.3164 23.0858 33.4893 25.0418Z" fill="white"/>
</svg>
